Coordinates
version=1
nRows=14
nColumns=24
inDegrees=yes

Units are S.I. units (second, meters, Newtons, ...)
Angles are in degrees.

endheader
time	pelvis_tilt	pelvis_list	pelvis_rotation	pelvis_tx	pelvis_ty	pelvis_tz	hip_flexion_r	hip_adduction_r	hip_rotation_r	knee_angle_r	ankle_angle_r	subtalar_angle_r	mtp_angle_r	hip_flexion_l	hip_adduction_l	hip_rotation_l	knee_angle_l	ankle_angle_l	subtalar_angle_l	mtp_angle_l	lumbar_extension	lumbar_bending	lumbar_rotation
      1.41633333	      1.58451863	     11.19995370	     -3.39837699	      0.34838547	      1.00540520	      0.29559999	     16.32222556	    -14.57182708	      1.14031454	    -75.74437005	     -8.36225354	    -10.83383522	      2.92629383	      7.68797207	     17.32151548	      1.35883288	    -11.57050901	      0.93296363	    -19.34766695	     -5.70570221	    -14.10564297	     -7.30546096	     -1.60685870
      1.42050000	      1.66415116	     11.04552800	     -3.31657986	      0.35326295	      1.00652814	      0.29517516	     16.86073469	    -14.32136434	      1.15571098	    -75.59919158	     -7.86215062	    -10.98751286	      0.07912047	      6.94549427	     17.22362354	      1.74023385	    -10.95831582	      0.80994178	    -19.56368171	     -5.57612202	    -14.21866080	     -7.08337839	     -1.86219533
      1.42466667	      1.66622125	     10.85948422	     -3.19662247	      0.35811448	      1.00752286	      0.29474960	     17.45367267	    -14.02633438	      1.14707796	    -75.38506364	     -7.41563387	    -11.11589367	      0.03601123	      6.34888347	     17.06268482	      1.93089644	    -10.49085743	      0.87898255	    -19.34929842	     -5.57154475	    -14.23903200	     -6.79038281	     -2.22553387
      1.42883333	      1.70896885	     10.68553756	     -3.08474433	      0.36297792	      1.00853309	      0.29431704	     17.98815062	    -13.75218355	      1.12803356	    -75.11277398	     -6.97336294	    -11.29414945	     -0.01744858	      5.69195599	     16.91884381	      2.15782012	     -9.98291466	      0.89818542	    -19.23691735	     -5.56948219	    -14.31006845	     -6.52593682	     -2.50286097
      1.43300000	      1.72574892	     10.49517909	     -2.95954725	      0.36782430	      1.00947807	      0.29388784	     18.52793035	    -13.45255280	      1.09922219	    -74.78123002	     -6.49868597	    -11.46162214	     -0.05124282	      5.07456261	     16.75145339	      2.37317819	     -9.50137390	      0.90036672	    -19.10829693	     -5.56860169	    -14.36500888	     -6.24893303	     -2.68836867
      1.43716667	      1.78549658	     10.32153253	     -2.83668703	      0.37269904	      1.01042737	      0.29344517	     19.00360517	    -13.18403076	      1.05828789	    -74.38793428	     -6.07073421	    -11.59866389	     -0.12377109	      4.38559197	     16.60542586	      2.63686590	     -8.96788867	      0.91828410	    -19.04908642	     -5.56929640	    -14.44162466	     -5.98241762	     -3.04264222
      1.44133333	      1.83332130	     10.15418952	     -2.71222271	      0.37757043	      1.01131103	      0.29301450	     19.47949372	    -12.92114754	      1.01475877	    -73.94785625	     -5.60045431	    -11.71465137	     -0.19348226	      3.72119969	     16.45922013	      2.87206168	     -8.45370742	      0.91891941	    -18.96115007	     -5.57227043	    -14.51536317	     -5.73384909	     -3.29628626
      1.44550000	      1.88591143	      9.98574035	     -2.58303135	      0.38243968	      1.01215999	      0.29256981	     19.93146396	    -12.66205684	      0.95930890	    -73.44939239	     -5.12478314	    -11.82709755	     -0.27917774	      3.05094943	     16.30903986	      3.10675499	     -7.93698897	      0.91725396	    -18.87366976	     -5.57806531	    -14.59153085	     -5.47731269	     -3.56211033
      1.44966667	      1.89327788	      9.80821110	     -2.44518685	      0.38729556	      1.01290036	      0.29215128	     20.41546765	    -12.38075985	      0.90850892	    -72.90059892	     -4.62196464	    -11.92321412	     -0.32861245	      2.45122027	     16.13969885	      3.30931984	     -7.46423267	      0.92683658	    -18.74183352	     -5.58164661	    -14.63595389	     -5.23077253	     -3.73049069
      1.45383333	      1.96300164	      9.65812975	     -2.31325957	      0.39220283	      1.01366311	      0.29170712	     20.81380373	    -12.15203420	      0.83812566	    -72.29635086	     -4.12268026	    -11.97975768	     -0.42903194	      1.75370380	     16.00258624	      3.54450888	     -6.92779245	      0.93991457	    -18.66589911	     -5.59235323	    -14.70910948	     -4.98090704	     -4.05041164
      1.45800000	      2.00477043	      9.48843030	     -2.18141823	      0.39707741	      1.01434667	      0.29128782	     21.22652491	    -11.89049491	      0.77586340	    -71.63608585	     -3.61026057	    -12.01594251	     -0.51490908	      1.10558763	     15.83719228	      3.76031523	     -6.42728760	      0.96489751	    -18.56101314	     -5.60254314	    -14.77918810	     -4.73266960	     -4.26544748
      1.46216667	      2.08016222	      9.32704166	     -2.05007926	      0.40197305	      1.01504328	      0.29087927	     21.57996173	    -11.64485537	      0.70218171	    -70.91590293	     -3.07497640	    -12.04114535	     -0.60388689	      0.41597469	     15.67671273	      3.96741303	     -5.91383614	      0.97950977	    -18.44578130	     -5.61496003	    -14.87774482	     -4.49442189	     -4.48856530
      1.46633333	      2.13016483	      9.17717412	     -1.91050663	      0.40687653	      1.01564033	      0.29047100	     21.94520041	    -11.41346732	      0.62525697	    -70.14983815	     -2.51367309	    -12.06027236	     -0.74233129	     -0.24420108	     15.52360717	      4.18478147	     -5.40230377	      0.96538633	    -18.36327884	     -5.63789836	    -14.94145307	     -4.27751368	     -4.74555912
      1.47050000	      2.17918118	      9.01768394	     -1.78326315	      0.41178088	      1.01617863	      0.29008291	     22.29658980	    -11.16501504	      0.56303575	    -69.32873538	     -1.97951407	    -12.03359116	     -0.84100678	     -0.89676189	     15.35629011	      4.38293812	     -4.90154112	      1.01422511	    -18.24806540	     -5.65475867	    -15.01029812	     -4.04128510	     -4.92150424
